<svg xmlns="http://www.w3.org/2000/svg" viewBox="0 0 24 24" width="48" height="48" fill="none">
  <circle cx="12" cy="12" r="12" fill="#25D366" />
  <path fill="#fff" d="M17.472 14.382c-.297-.149-1.759-.867-2.03-.967-.273-.099-.472-.149-.672.15-.198.297-.768.967-.942 1.165-.174.198-.347.223-.644.075-.297-.149-1.255-.463-2.39-1.475-.884-.788-1.48-1.761-1.653-2.059-.174-.297-.019-.458.13-.607.134-.133.297-.347.446-.52.149-.174.198-.298.297-.497.099-.198.05-.373-.025-.522-.075-.149-.672-1.611-.92-2.207-.242-.579-.487-.5-.672-.51l-.572-.01c-.198 0-.52.074-.792.373-.273.298-1.04 1.016-1.04 2.479 0 1.462 1.064 2.875 1.213 3.074.149.198 2.095 3.2 5.076 4.487 2.98 1.287 2.98.858 3.517.805.537-.052 1.748-.712 1.996-1.4.248-.688.248-1.277.174-1.4-.074-.124-.272-.198-.57-.347z"/>
</svg>
